HIERARCHY
ROOT Hips
{
	OFFSET 0.000000 0.000000 0.000000
	CHANNELS 6 Xposition Yposition Zposition Zrotation Yrotation Xrotation 
	JOINT Spine1
	{
		OFFSET -0.013727 5.003764 -0.053727
		CHANNELS 3 Zrotation Yrotation Xrotation
		JOINT Spine2
		{
			OFFSET -0.000000 7.125302 -0.029825
			CHANNELS 3 Zrotation Yrotation Xrotation
			JOINT Chest
			{
				OFFSET -0.000001 7.550063 -0.815971
				CHANNELS 3 Zrotation Yrotation Xrotation
				JOINT Neck1
				{
					OFFSET -0.181676 26.311296 -0.553348
					CHANNELS 3 Zrotation Yrotation Xrotation
					JOINT Neck2
					{
						OFFSET -0.000003 7.709399 2.302586
						CHANNELS 3 Zrotation Yrotation Xrotation
						JOINT Head
						{
							OFFSET -0.000004 6.128913 1.953709
							CHANNELS 3 Zrotation Yrotation Xrotation
							JOINT HeadEnd
							{
								OFFSET 0.003598 16.065401 -1.835379
								CHANNELS 3 Zrotation Yrotation Xrotation
								End Site
								{
									OFFSET 0.000000 0.000000 0.000000
								}
							}
							JOINT Jaw
							{
								OFFSET 0.002637 0.475592 3.094940
								CHANNELS 3 Zrotation Yrotation Xrotation
								End Site
								{
									OFFSET 0.000000 0.000000 0.000000
								}
							}
							JOINT LeftEye
							{
								OFFSET 3.206381 5.380208 7.586883
								CHANNELS 3 Zrotation Yrotation Xrotation
								End Site
								{
									OFFSET 0.000000 0.000000 0.000000
								}
							}
							JOINT RightEye
							{
								OFFSET -3.222440 5.361867 7.558233
								CHANNELS 3 Zrotation Yrotation Xrotation
								End Site
								{
									OFFSET 0.000000 0.000000 0.000000
								}
							}
						}
					}
				}
				JOINT LeftShoulder
				{
					OFFSET 1.621652 23.237164 5.113413
					CHANNELS 3 Zrotation Yrotation Xrotation
					JOINT LeftArm
					{
						OFFSET 14.919845 0.000000 -5.502326
						CHANNELS 3 Zrotation Yrotation Xrotation
						JOINT LeftForeArm
						{
							OFFSET 28.739309 0.000004 -0.002588
							CHANNELS 3 Zrotation Yrotation Xrotation
							JOINT LeftHand
							{
								OFFSET 27.093983 -0.000004 0.002610
								CHANNELS 3 Zrotation Yrotation Xrotation
								JOINT LeftHandThumb1
								{
									OFFSET 2.276481 -1.392045 3.191413
									CHANNELS 3 Zrotation Yrotation Xrotation
									JOINT LeftHandThumb2
									{
										OFFSET 4.012841 -1.828126 1.641655
										CHANNELS 3 Zrotation Yrotation Xrotation
										JOINT LeftHandThumb3
										{
											OFFSET 2.798516 0.000001 -0.000003
											CHANNELS 3 Zrotation Yrotation Xrotation
											JOINT LeftHandThumbEnd
											{
												OFFSET 3.180792 -0.000001 0.000003
												CHANNELS 3 Zrotation Yrotation Xrotation
												End Site
												{
													OFFSET 0.000000 0.000000 0.000000
												}
											}
										}
									}
								}
								JOINT LeftHandIndex1
								{
									OFFSET 3.247553 -0.531998 2.296169
									CHANNELS 3 Zrotation Yrotation Xrotation
									JOINT LeftHandIndex2
									{
										OFFSET 6.364580 0.012062 0.178600
										CHANNELS 3 Zrotation Yrotation Xrotation
										JOINT LeftHandIndex3
										{
											OFFSET 3.662366 0.000001 -0.000000
											CHANNELS 3 Zrotation Yrotation Xrotation
											JOINT LeftHandIndex4
											{
												OFFSET 2.329242 0.000002 0.000005
												CHANNELS 3 Zrotation Yrotation Xrotation
												JOINT LeftHandIndexEnd
												{
													OFFSET 2.759619 -0.180539 -0.113024
													CHANNELS 3 Zrotation Yrotation Xrotation
													End Site
													{
														OFFSET 0.000000 0.000000 0.000000
													}
												}
											}
										}
									}
								}
								JOINT LeftHandMiddle1
								{
									OFFSET 3.163498 0.240981 1.000332
									CHANNELS 3 Zrotation Yrotation Xrotation
									JOINT LeftHandMiddle2
									{
										OFFSET 6.190778 -0.259276 -1.002548
										CHANNELS 3 Zrotation Yrotation Xrotation
										JOINT LeftHandMiddle3
										{
											OFFSET 4.356523 -0.000006 0.000000
											CHANNELS 3 Zrotation Yrotation Xrotation
											JOINT LeftHandMiddle4
											{
												OFFSET 2.996875 -0.000007 0.000001
												CHANNELS 3 Zrotation Yrotation Xrotation
												JOINT LeftHandMiddleEnd
												{
													OFFSET 2.304294 -0.294571 -0.031740
													CHANNELS 3 Zrotation Yrotation Xrotation
													End Site
													{
														OFFSET 0.000000 0.000000 0.000000
													}
												}
											}
										}
									}
								}
								JOINT LeftHandRing1
								{
									OFFSET 2.882642 -0.053650 -0.322544
									CHANNELS 3 Zrotation Yrotation Xrotation
									JOINT LeftHandRing2
									{
										OFFSET 5.854542 -0.486203 -1.373841
										CHANNELS 3 Zrotation Yrotation Xrotation
										JOINT LeftHandRing3
										{
											OFFSET 4.350581 0.000001 0.000003
											CHANNELS 3 Zrotation Yrotation Xrotation
											JOINT LeftHandRing4
											{
												OFFSET 2.651325 0.000007 0.000003
												CHANNELS 3 Zrotation Yrotation Xrotation
												JOINT LeftHandRingEnd
												{
													OFFSET 1.936111 0.077685 -0.000070
													CHANNELS 3 Zrotation Yrotation Xrotation
													End Site
													{
														OFFSET 0.000000 0.000000 0.000000
													}
												}
											}
										}
									}
								}
								JOINT LeftHandPinky1
								{
									OFFSET 2.865499 -0.310004 -1.600378
									CHANNELS 3 Zrotation Yrotation Xrotation
									JOINT LeftHandPinky2
									{
										OFFSET 5.087854 -1.331142 -1.771231
										CHANNELS 3 Zrotation Yrotation Xrotation
										JOINT LeftHandPinky3
										{
											OFFSET 3.070975 0.000003 0.000000
											CHANNELS 3 Zrotation Yrotation Xrotation
											JOINT LeftHandPinky4
											{
												OFFSET 1.549668 -0.000000 0.000001
												CHANNELS 3 Zrotation Yrotation Xrotation
												JOINT LeftHandPinkyEnd
												{
													OFFSET 1.944895 -0.157801 0.057219
													CHANNELS 3 Zrotation Yrotation Xrotation
													End Site
													{
														OFFSET 0.000000 0.000000 0.000000
													}
												}
											}
										}
									}
								}
							}
						}
					}
				}
				JOINT RightShoulder
				{
					OFFSET -1.380118 23.180307 5.214157
					CHANNELS 3 Zrotation Yrotation Xrotation
					JOINT RightArm
					{
						OFFSET -15.037197 0.000011 -5.545604
						CHANNELS 3 Zrotation Yrotation Xrotation
						JOINT RightForeArm
						{
							OFFSET -28.736639 0.000003 -0.002597
							CHANNELS 3 Zrotation Yrotation Xrotation
							JOINT RightHand
							{
								OFFSET -27.133619 0.000000 0.002613
								CHANNELS 3 Zrotation Yrotation Xrotation
								JOINT RightHandThumb1
								{
									OFFSET -2.274036 -1.383990 3.163128
									CHANNELS 3 Zrotation Yrotation Xrotation
									JOINT RightHandThumb2
									{
										OFFSET -4.011429 -1.827467 1.640914
										CHANNELS 3 Zrotation Yrotation Xrotation
										JOINT RightHandThumb3
										{
											OFFSET -2.794935 -0.000004 -0.000003
											CHANNELS 3 Zrotation Yrotation Xrotation
											JOINT RightHandThumbEnd
											{
												OFFSET -3.183855 0.000003 -0.000000
												CHANNELS 3 Zrotation Yrotation Xrotation
												End Site
												{
													OFFSET 0.000000 0.000000 0.000000
												}
											}
										}
									}
								}
								JOINT RightHandIndex1
								{
									OFFSET -3.253269 -0.520059 2.282866
									CHANNELS 3 Zrotation Yrotation Xrotation
									JOINT RightHandIndex2
									{
										OFFSET -6.341918 0.012473 0.178265
										CHANNELS 3 Zrotation Yrotation Xrotation
										JOINT RightHandIndex3
										{
											OFFSET -3.654873 -0.000009 -0.000001
											CHANNELS 3 Zrotation Yrotation Xrotation
											JOINT RightHandIndex4
											{
												OFFSET -2.327586 0.000000 0.000000
												CHANNELS 3 Zrotation Yrotation Xrotation
												JOINT RightHandIndexEnd
												{
													OFFSET -2.761789 -0.180657 -0.113078
													CHANNELS 3 Zrotation Yrotation Xrotation
													End Site
													{
														OFFSET 0.000000 0.000000 0.000000
													}
												}
											}
										}
									}
								}
								JOINT RightHandMiddle1
								{
									OFFSET -3.168106 0.246593 1.001030
									CHANNELS 3 Zrotation Yrotation Xrotation
									JOINT RightHandMiddle2
									{
										OFFSET -6.180830 -0.258835 -1.000896
										CHANNELS 3 Zrotation Yrotation Xrotation
										JOINT RightHandMiddle3
										{
											OFFSET -4.348906 -0.000000 -0.000001
											CHANNELS 3 Zrotation Yrotation Xrotation
											JOINT RightHandMiddle4
											{
												OFFSET -3.000243 -0.000004 -0.000002
												CHANNELS 3 Zrotation Yrotation Xrotation
												JOINT RightHandMiddleEnd
												{
													OFFSET -2.302518 -0.294371 -0.031706
													CHANNELS 3 Zrotation Yrotation Xrotation
													End Site
													{
														OFFSET 0.000000 0.000000 0.000000
													}
												}
											}
										}
									}
								}
								JOINT RightHandRing1
								{
									OFFSET -2.885693 -0.067952 -0.308858
									CHANNELS 3 Zrotation Yrotation Xrotation
									JOINT RightHandRing2
									{
										OFFSET -5.854197 -0.486132 -1.373732
										CHANNELS 3 Zrotation Yrotation Xrotation
										JOINT RightHandRing3
										{
											OFFSET -4.338814 -0.000004 -0.000001
											CHANNELS 3 Zrotation Yrotation Xrotation
											JOINT RightHandRing4
											{
												OFFSET -2.654906 -0.000005 0.000004
												CHANNELS 3 Zrotation Yrotation Xrotation
												JOINT RightHandRingEnd
												{
													OFFSET -1.933569 0.077524 -0.000052
													CHANNELS 3 Zrotation Yrotation Xrotation
													End Site
													{
														OFFSET 0.000000 0.000000 0.000000
													}
												}
											}
										}
									}
								}
								JOINT RightHandPinky1
								{
									OFFSET -2.866429 -0.342798 -1.584145
									CHANNELS 3 Zrotation Yrotation Xrotation
									JOINT RightHandPinky2
									{
										OFFSET -5.091371 -1.332054 -1.772385
										CHANNELS 3 Zrotation Yrotation Xrotation
										JOINT RightHandPinky3
										{
											OFFSET -3.062666 -0.000006 0.000001
											CHANNELS 3 Zrotation Yrotation Xrotation
											JOINT RightHandPinky4
											{
												OFFSET -1.546527 0.000005 -0.000002
												CHANNELS 3 Zrotation Yrotation Xrotation
												JOINT RightHandPinkyEnd
												{
													OFFSET -1.945121 -0.157723 0.057211
													CHANNELS 3 Zrotation Yrotation Xrotation
													End Site
													{
														OFFSET 0.000000 0.000000 0.000000
													}
												}
											}
										}
									}
								}
							}
						}
					}
				}
			}
		}
	}
	JOINT LeftLeg
	{
		OFFSET 10.043214 -8.434526 2.595655
		CHANNELS 3 Zrotation Yrotation Xrotation
		JOINT LeftShin
		{
			OFFSET -0.000001 -43.221752 -0.802913
			CHANNELS 3 Zrotation Yrotation Xrotation
			JOINT LeftFoot
			{
				OFFSET 0.000002 -42.155094 -3.481523
				CHANNELS 3 Zrotation Yrotation Xrotation
				JOINT LeftToeBase
				{
					OFFSET 0.000000 -5.059475 13.231529
					CHANNELS 3 Zrotation Yrotation Xrotation
					JOINT LeftToeEnd
					{
						OFFSET -0.009607 -1.647615 6.513017
						CHANNELS 3 Zrotation Yrotation Xrotation
						End Site
						{
							OFFSET 0.000000 0.000000 0.000000
						}
					}
				}
			}
		}
	}
	JOINT RightLeg
	{
		OFFSET -10.047277 -8.295259 2.620317
		CHANNELS 3 Zrotation Yrotation Xrotation
		JOINT RightShin
		{
			OFFSET 0.000001 -43.362209 -0.805556
			CHANNELS 3 Zrotation Yrotation Xrotation
			JOINT RightFoot
			{
				OFFSET 0.000002 -42.117393 -3.478398
				CHANNELS 3 Zrotation Yrotation Xrotation
				JOINT RightToeBase
				{
					OFFSET -0.000001 -5.079609 13.284196
					CHANNELS 3 Zrotation Yrotation Xrotation
					JOINT RightToeEnd
					{
						OFFSET 0.009532 -1.634383 6.460591
						CHANNELS 3 Zrotation Yrotation Xrotation
						End Site
						{
							OFFSET 0.000000 0.000000 0.000000
						}
					}
				}
			}
		}
	}
}
MOTION
Frames: 4
Frame Time: 0.033333
26.589472 100.174774 20.445997 -3.828313 6.173969 0.375877 0.149094 0.803771 3.231235 -0.011992 0.217694 -4.181373 2.757440 -1.425983 14.493752 -5.000921 6.048143 13.896586 2.273982 8.481678 -3.405313 -5.381990 11.384054 1.728601 0.000077 -0.000022 0.000005 0.031320 -0.026957 -0.153642 0.813018 -3.791813 -10.950682 -0.742409 3.727822 -10.975165 20.978411 -14.911265 4.896515 -74.868927 -37.629879 -22.349808 178.267883 -32.555813 -179.603745 0.899599 -14.141946 -3.264231 -5.882102 9.861278 0.702590 -10.936861 -0.360574 7.156196 0.000003 8.774814 -0.000001 -15.978363 17.618525 6.214520 -1.844031 2.498502 -2.507276 -10.163591 4.678939 4.621104 -20.975998 -0.000004 0.000003 -21.226255 2.451692 -3.593992 -0.000000 -0.000006 -0.000000 -1.362682 2.240796 -0.746323 -21.334892 0.584908 3.008320 -13.821197 -0.000003 0.000002 -23.887135 -0.249079 -0.839481 -59.476574 2.186058 -1.367600 -0.294025 1.679686 0.833255 -14.218192 0.093214 1.300579 -34.212006 -0.287564 0.967170 -20.033180 0.964534 1.212842 0.000000 -0.000000 -0.000000 -3.440387 0.788232 0.501655 -15.928167 -3.167306 2.999703 -6.338818 -0.000001 0.000001 -18.123415 3.648175 -4.905660 -0.000004 0.000000 -0.000002 -4.591526 23.483101 11.505986 90.904129 53.988136 17.165249 178.499893 50.027767 179.211090 -14.185313 14.460910 -10.434052 2.243540 -5.255033 -3.180155 14.282878 -0.826595 6.952496 -0.000002 -12.690591 0.000002 15.235424 -17.333647 3.705643 1.665664 -1.955920 -2.878297 4.727794 -4.170584 4.993918 11.020513 0.000002 0.000000 12.109033 -3.735712 -2.866778 -0.000001 0.000001 -0.000000 1.291985 -1.928548 -1.498087 14.800114 0.567466 3.865603 14.242553 -1.341738 -6.660645 19.631941 0.143924 -0.648245 47.642864 -1.111687 -4.878346 0.353028 -1.511150 -0.031941 20.222769 3.684303 2.316627 18.787245 0.000003 -0.000000 10.751610 -0.479868 1.397903 -0.000002 -0.000001 0.000001 3.273805 0.305946 -0.580109 21.486790 11.830360 2.266130 8.162919 0.000001 0.000000 18.399059 -3.798979 -4.940567 0.000003 0.000000 -0.000001 3.578176 31.366993 -25.224632 -0.159974 -0.256021 40.641171 -4.555276 12.855979 6.367482 1.795174 -1.872382 -7.579688 -0.000000 -0.000001 0.000002 -17.121149 -9.585969 3.198346 0.391260 1.403924 24.383522 7.026962 -1.013578 21.475168 -1.550425 0.841158 -7.626001 0.000001 -0.000000 -0.000003 
25.509722 99.653732 19.009176 -3.574801 1.800961 1.153897 0.013655 0.954331 3.694565 -0.056237 0.148925 -4.035934 2.472475 -1.327581 14.893043 -6.813654 6.965451 13.214639 2.523119 9.266308 -3.342077 -6.086114 12.911700 1.519750 0.000077 -0.000022 0.000006 0.054985 -0.055472 -0.123917 0.826876 -3.826960 -10.885169 -0.707726 3.688632 -10.898362 21.702192 -15.834662 4.622454 -75.226967 -36.967571 -25.926588 178.144363 -31.234474 -179.357895 0.018510 -14.922321 -5.093800 -5.882102 9.861278 0.702589 -10.936858 -0.360576 7.156196 0.000001 8.774813 -0.000002 -16.003813 17.690374 6.227809 -1.844031 2.498503 -2.507276 -10.163589 4.678939 4.621103 -20.975994 -0.000005 0.000002 -21.226254 2.451692 -3.593993 0.000000 -0.000006 -0.000000 -1.362680 2.240796 -0.746323 -21.334892 0.584907 3.008320 -13.821194 -0.000004 0.000002 -23.887131 -0.249079 -0.839480 -59.660847 2.226920 -1.422207 -0.294025 1.679686 0.833255 -14.218194 0.093214 1.300578 -34.212002 -0.287566 0.967170 -20.033180 0.964534 1.212842 0.000000 0.000000 0.000000 -3.440385 0.788232 0.501655 -15.928164 -3.167308 2.999703 -6.338817 -0.000002 0.000001 -18.123415 3.648175 -4.905661 -0.000004 0.000000 -0.000002 -4.619060 24.200712 11.767037 93.648453 53.724201 20.346348 178.147095 49.019703 178.826645 -14.014586 14.742700 -11.575321 2.243539 -5.255033 -3.180155 14.282873 -0.826592 6.952495 -0.000002 -12.690588 -0.000001 15.604402 -17.304527 3.619849 1.665664 -1.955920 -2.878297 4.727793 -4.170583 4.993921 11.020510 0.000003 -0.000001 12.109032 -3.735708 -2.866779 0.000000 0.000000 0.000001 1.291985 -1.928547 -1.498087 14.800109 0.567468 3.865602 14.242553 -1.341735 -6.660653 19.631937 0.143926 -0.648246 47.862720 -1.120933 -4.967881 0.353029 -1.511149 -0.031941 20.222763 3.684306 2.316627 18.787245 0.000005 0.000000 10.751609 -0.479867 1.397904 0.000000 0.000000 0.000000 3.273804 0.305947 -0.580112 21.486790 11.830364 2.266130 8.162916 0.000001 0.000000 18.399048 -3.798978 -4.940567 0.000002 0.000000 -0.000002 3.524721 33.302185 -27.464773 -0.236153 -0.340822 42.649040 -4.959493 11.704235 7.028920 1.802883 -1.878743 -8.607309 0.000000 -0.000000 0.000002 -17.342548 -9.181818 2.703319 0.407693 1.523528 20.703484 9.530380 0.393469 20.647116 -1.545114 0.829575 -9.459834 0.000000 -0.000000 -0.000003 
24.097862 98.971046 17.642521 -3.349271 -0.882442 1.859465 -0.110553 1.041176 3.947989 -0.149623 0.082522 -3.949735 2.245159 -1.278928 15.216218 -8.101772 7.560865 12.623535 2.675909 9.645094 -3.271391 -6.682409 13.845203 1.432933 0.000078 -0.000022 0.000007 0.094991 -0.129855 -0.109627 0.858159 -3.887500 -10.823267 -0.661150 3.615367 -10.844158 22.241297 -16.493326 4.445138 -75.700104 -36.706921 -28.037516 178.034607 -30.449753 -179.164383 -0.869997 -15.736564 -6.549010 -5.882101 9.861279 0.702590 -10.936861 -0.360574 7.156198 0.000002 8.774812 -0.000001 -16.056240 17.756752 6.212076 -1.844031 2.498502 -2.507275 -10.163592 4.678940 4.621104 -20.975998 -0.000004 0.000003 -21.226254 2.451692 -3.593993 0.000001 -0.000006 -0.000000 -1.362680 2.240796 -0.746322 -21.334892 0.584908 3.008320 -13.821197 -0.000003 0.000002 -23.887131 -0.249078 -0.839481 -59.872177 2.269274 -1.477746 -0.294025 1.679686 0.833255 -14.218195 0.093214 1.300579 -34.211998 -0.287564 0.967170 -20.033180 0.964535 1.212842 0.000000 -0.000000 -0.000000 -3.440385 0.788233 0.501655 -15.928169 -3.167306 2.999704 -6.338818 -0.000001 0.000001 -18.123415 3.648175 -4.905662 -0.000004 -0.000000 -0.000002 -4.418888 24.646606 12.057364 95.240463 53.103992 22.601875 177.864426 47.890896 178.491211 -13.757903 15.353182 -12.013177 2.243541 -5.255033 -3.180155 14.282877 -0.826594 6.952497 -0.000002 -12.690592 0.000001 16.018747 -17.334387 3.512334 1.665665 -1.955920 -2.878296 4.727794 -4.170583 4.993919 11.020513 0.000004 -0.000001 12.109031 -3.735709 -2.866781 -0.000001 0.000001 -0.000000 1.291985 -1.928547 -1.498087 14.800111 0.567469 3.865602 14.242553 -1.341734 -6.660647 19.631939 0.143927 -0.648244 48.321842 -1.144917 -5.142217 0.353028 -1.511149 -0.031941 20.222769 3.684306 2.316629 18.787245 0.000004 -0.000000 10.751610 -0.479866 1.397903 0.000001 0.000001 0.000000 3.273805 0.305947 -0.580112 21.486792 11.830364 2.266132 8.162916 0.000002 0.000002 18.399052 -3.798979 -4.940566 0.000001 0.000000 -0.000001 3.588455 34.655819 -29.668728 -0.295679 -0.367512 44.122292 -5.355121 9.802758 6.827935 1.807810 -1.903274 -9.003870 0.000000 0.000000 0.000001 -17.100046 -8.542608 3.165804 0.359737 1.686383 16.958603 12.109756 1.180172 17.636318 -1.542896 0.849802 -11.156142 -0.000000 -0.000000 -0.000001 
22.451263 98.135986 16.370102 -3.192343 -2.001133 2.457042 -0.100368 1.053400 4.045002 -0.298476 0.050612 -4.016654 2.128894 -1.331562 15.517013 -8.987750 7.849223 12.248754 2.637142 9.922027 -3.277534 -7.019126 14.036675 1.484609 0.000078 -0.000022 0.000006 0.086826 -0.131571 -0.099882 0.838755 -3.878894 -10.791262 -0.664846 3.615885 -10.808593 22.621178 -17.094563 4.597834 -76.750252 -36.650772 -29.092209 178.019409 -29.923334 -179.068069 -1.950406 -16.572580 -7.426991 -5.882102 9.861278 0.702590 -10.936859 -0.360574 7.156196 0.000001 8.774812 -0.000000 -16.282112 17.741337 6.142998 -1.844032 2.498502 -2.507276 -10.163590 4.678940 4.621104 -20.975994 -0.000004 0.000001 -21.226254 2.451692 -3.593994 0.000001 -0.000006 -0.000000 -1.362681 2.240796 -0.746323 -21.334890 0.584909 3.008319 -13.821195 -0.000003 0.000002 -23.887131 -0.249079 -0.839482 -60.232533 2.285926 -1.260765 -0.294025 1.679686 0.833255 -14.218190 0.093215 1.300579 -34.211998 -0.287565 0.967168 -20.033180 0.964535 1.212841 -0.000000 0.000000 0.000000 -3.440384 0.788232 0.501656 -15.928167 -3.167306 2.999703 -6.338818 -0.000000 0.000000 -18.123415 3.648175 -4.905662 -0.000004 -0.000000 -0.000002 -4.139019 25.012892 12.210881 95.649590 52.123913 23.656878 177.558044 46.889126 178.244614 -13.264504 16.224892 -12.282587 2.243539 -5.255032 -3.180155 14.282877 -0.826592 6.952496 -0.000004 -12.690592 0.000000 16.346287 -17.497757 3.383862 1.665664 -1.955919 -2.878296 4.727793 -4.170583 4.993917 11.020513 0.000004 -0.000001 12.109035 -3.735711 -2.866779 -0.000001 0.000001 -0.000000 1.291984 -1.928548 -1.498088 14.800114 0.567469 3.865603 14.242553 -1.341733 -6.660651 19.631939 0.143928 -0.648243 48.931458 -1.112667 -5.158845 0.353029 -1.511149 -0.031942 20.222769 3.684309 2.316628 18.787245 0.000007 0.000001 10.751609 -0.479866 1.397904 -0.000001 0.000000 0.000001 3.273804 0.305947 -0.580110 21.486794 11.830364 2.266130 8.162917 0.000002 -0.000002 18.399052 -3.798976 -4.940566 0.000002 0.000000 -0.000002 3.781090 35.269936 -31.739300 -0.340668 -0.382843 45.040592 -5.641800 7.437328 5.739021 1.804667 -1.893423 -8.627383 0.000000 -0.000000 0.000002 -16.370026 -7.996484 4.572768 0.240796 1.691222 12.980824 14.371931 1.336870 11.729433 -1.549127 0.926347 -11.043636 0.000000 0.000000 -0.000002 
